/* XPM */
static char *b44c9371de6e43bdcb2d9198e0b6a5b7pX6YiNJrCwPUN3gW[] = {
/* columns rows colors chars-per-pixel */
"86 100 36 1 ",
"  c None",
". c black",
"X c #010101",
"o c #040404",
"O c #060606",
"+ c #070707",
"@ c #090909",
"# c gray5",
"$ c gray7",
"% c gray9",
"& c #191919",
"* c #202020",
"= c #232323",
"- c gray19",
"; c #323232",
": c #434343",
"> c #444444",
", c gray36",
"< c #5F5F5F",
"1 c gray50",
"2 c #808080",
"3 c gray51",
"4 c gray66",
"5 c gray68",
"6 c #B7B7B7",
"7 c gray72",
"8 c gray73",
"9 c #BCBCBC",
"0 c gray74",
"q c gray75",
"w c gray91",
"e c #EAEAEA",
"r c #ECECEC",
"t c #FBFBFB",
"y c #FDFDFD",
"u c white",
/* pixels */
"                                           .......................................    ",
"                                           .......................................    ",
"                                          .........................................   ",
"                                       ...............................................",
"                                       ...............................................",
"                                       .........+@++..................................",
"                                       .......#,113<$.................................",
"                                       .......&6yty0=.................................",
"                                       .......&8yyy0=.................................",
"                                       .......&8yyyq=.................................",
"                                       .......%4rwr5=.................................",
"                                       .......+->>>-@.................................",
"                                       ...............................................",
"                                       ...............................................",
"                                       ...............................................",
"                                       ...............................................",
"                                       ...............................................",
"                                       ...............................................",
"                                       ...............................................",
"                                       ...............................................",
"                                       ...............................................",
"                                       ...............................................",
"                                       ...............................................",
"                                       ...............................................",
"                                       ...............................................",
"                                       ...............................................",
"                                       ...............................................",
"                                       ....................                           ",
"                                       ....................                           ",
"                                       ....................                           ",
"                                       ....................                           ",
"                                       ....................                           ",
"                                       ....................                           ",
"                                       ...................................            ",
"                                       ...................................            ",
"                                       ...................................            ",
"                                       ...................................            ",
"                                       ...................................            ",
"                                       ................                               ",
"                                       ................                               ",
"                                       ................                               ",
"....                               ....................                               ",
"....                               ....................                               ",
"....                               ....................                               ",
"....                               ....................                               ",
".........                   ...........................                               ",
".........                   ...........................                               ",
".........                   ...........................                               ",
".........                   ...........................                               ",
"..........                 .....................................                      ",
"..............       ............................................                     ",
"..............       ............................................                     ",
"..............       ............................................                     ",
"..............       ............................................                     ",
".......................................................     .....                     ",
".......................................................      ....                     ",
".......................................................      ....                     ",
".......................................................      ...                      ",
".......................................................       .                       ",
".......................................................                               ",
".......................................................                               ",
".......................................................                               ",
".......................................................                               ",
"  .................................................                                   ",
"   ................................................                                   ",
"   ................................................                                   ",
"   ................................................                                   ",
"   ................................................                                   ",
"       ............................................                                   ",
"        ...........................................                                   ",
"        ...........................................                                   ",
"        ...........................................                                   ",
"           ....................................                                       ",
"           ...................................                                        ",
"           ...................................                                        ",
"           ...................................                                        ",
"           ...................................                                        ",
"                .........................                                             ",
"                .........................                                             ",
"                .........................                                             ",
"                .........................                                             ",
"                     ..........    ......                                             ",
"                      .........    ......                                             ",
"                      .........    ......                                             ",
"                      .........    ......                                             ",
"                      ...            ....                                             ",
"                      ...             ...                                             ",
"                      ...             ...                                             ",
"                      ........        ...                                             ",
"                      ........        ...                                             ",
"                      ........        ...                                             ",
"                                      ...                                             ",
"                                      ...                                             ",
"                                      ...                                             ",
"                                      ...                                             ",
"                                      ...                                             ",
"                                      ...                                             ",
"                                      .........                                       ",
"                                      .........                                       ",
"                                      .........                                       "
};
