/* XPM */
static char *_6995e86ebca4fd58fbbed36c40353ffo8Sb3wbKWfqOE7Py[] = {
/* columns rows colors chars-per-pixel */
"100 82 141 2 ",
"   c None",
".  c #05322B",
"X  c #0B352E",
"o  c #0C3730",
"O  c #0C3932",
"+  c #163D37",
"@  c #163F39",
"#  c #0F443C",
"$  c #13433B",
"%  c #1D453E",
"&  c #10493F",
"*  c #1E4640",
"=  c #114C42",
"-  c #13564B",
";  c #14594E",
":  c #18594E",
">  c #145D51",
",  c #195D52",
"<  c #31554F",
"1  c #325651",
"2  c #3C5E59",
"3  c #156255",
"4  c #166558",
"5  c #176B5D",
"6  c #186E5F",
"7  c #3F615B",
"8  c #186F61",
"9  c #197364",
"0  c #1B7B6B",
"q  c #217C6D",
"w  c #486863",
"e  c #52716C",
"r  c #5F7B77",
"t  c #627E79",
"y  c #1C806F",
"u  c #1C8070",
"i  c #1E8977",
"p  c #1F8E7B",
"a  c #1E927E",
"s  c #268373",
"d  c #228C7A",
"f  c #20937F",
"g  c #65807C",
"h  c #1F9480",
"j  c #209581",
"k  c #239985",
"l  c #239F89",
"z  c #2B9C89",
"x  c #23A38D",
"c  c #2CA792",
"v  c #25AB94",
"b  c #2EA893",
"n  c #26B199",
"m  c #29BBA2",
"M  c #3FB7A3",
"N  c #34BBA4",
"B  c #37BFA8",
"V  c #46B7A3",
"C  c #2AC0A6",
"Z  c #2AC4A9",
"A  c #27CCAF",
"S  c #2ACBAF",
"D  c #35C1A8",
"F  c #3AC3AB",
"G  c #2CCDB1",
"H  c #3DCEB5",
"J  c #2ED2B5",
"K  c #2FD6B9",
"L  c #2FDBBD",
"P  c #31D3B7",
"I  c #3FD3B9",
"U  c #31DCBE",
"Y  c #38D9BD",
"T  c #40CEB5",
"R  c #43D3BA",
"E  c #33DEC0",
"W  c #3BDEC2",
"Q  c #35E0C3",
"!  c #3DE3C6",
"~  c #3DE5C8",
"^  c #42DCC2",
"/  c #4EDBC2",
"(  c #5EDFC9",
")  c #6DDFCB",
"_  c #73DECC",
"`  c #46E1C6",
"'  c #46E3C8",
"]  c #45EBCE",
"[  c #48EBCF",
"{  c #58E2CB",
"}  c #56E8CF",
"|  c #47EDD0",
" . c #4AEDD1",
".. c #53EED3",
"X. c #4CF1D4",
"o. c #79E3D0",
"O. c #67F0D8",
"+. c #69F0D9",
"@. c #7AF2DD",
"#. c #859A97",
"$. c #879C99",
"%. c #899E9B",
"&. c #8DA3A0",
"*. c #8FABA7",
"=. c #9DAEAC",
"-. c #97B3AF",
";. c #9FB0AD",
":. c #A0B1AE",
">. c #A2B2B0",
",. c #AABCB9",
"<. c #BDDED8",
"1. c #92EADB",
"2. c #8CF4E2",
"3. c #94F4E4",
"4. c #9EF5E5",
"5. c #A2F6E7",
"6. c #ACF3E7",
"7. c #A5F6E8",
"8. c #ADF7EA",
"9. c #B2F7EB",
"0. c #B3F8EB",
"q. c #BBF8EE",
"w. c #C6D0CF",
"e. c #C8D1CF",
"r. c #C7D1D0",
"t. c #CAD3D2",
"y. c #D5DCDB",
"u. c #C3EAE3",
"i. c #C2F6ED",
"p. c #C2F9EF",
"a. c #C6F9F0",
"s. c #CCFAF2",
"d. c #DDF5F1",
"f. c #D2FAF3",
"g. c #DCFCF6",
"h. c #EAEEED",
"j. c #ECF0EF",
"k. c #E5FCF8",
"l. c #EEFDFB",
"z. c #F5FAFA",
"x. c #FEFFFF",
/* pixels */
"                                                                                                                                                                                                        ",
"                                                                                                                                                                                                        ",
"                                                                                                                                                                                                        ",
"                                                                                                                                                                                                        ",
"                                                                                                                                                                                                        ",
"                                                                                                                                                                                                        ",
"                                                                                                                                                                                                        ",
"                                                                                o o o o o o o o o o o o o o o o o o o o o                                                                               ",
"                                                                                o o o o o o o o o o o o o o o o o o o o o                                                                               ",
"                                                                                o o o o o o o o o o o o o o o o o o o o o                                                                               ",
"                                                                                o O o o o o o O o o O o o o o o o o o o o                                                                               ",
"                                                                                X o X X o X X X o X X X o X o X X o X o X                                                                               ",
"                                                                      o o o . e :.:.:.:.:.:.:.:.:.:.:.:.:.:.:.:.:.:.:.>.%.@ X o o o                                                                     ",
"                                                                    o o o o X t x.x.x.x.x.x.x.x.x.x.x.x.x.x.x.x.x.x.x.x.t.$ X o o o                                                                     ",
"                                                                    o o o o X t x.x.x.x.x.x.x.x.x.x.x.x.x.x.x.x.x.x.x.x.w.+ o o o o                                                                     ",
"                                                                    o o o o . t x.x.x.x.x.x.x.x.x.x.x.x.x.x.x.x.x.x.x.x.r.% X o o o                                                                     ",
"                                                                    . X X . . r x.x.x.x.x.x.x.x.x.x.x.x.x.x.x.x.x.x.x.x.r.+ X X X X                                                                     ",
"                                                                    e g g g t *.g.g.g.g.g.g.g.k.g.g.g.g.g.g.g.k.l.l.l.z.<.q 9 9 9 9                                                                     ",
"                                                          o o o O X =.x.x.x.x.g.5.5.5.5.5.5.5.5.5.5.5.5.5.5.4.0.f.f.f.f.6.Y U U U G - X o o o                                                           ",
"                                                          o o o O X :.x.x.x.x.k.5.5.5.5.5.5.5.5.5.5.5.5.5.5.5.q.f.f.f.f.6.Y K U U P - X o o o                                                           ",
"                                                          o o o o X :.x.x.x.x.g.5.5.5.5.5.5.5.5.5.5.5.5.5.5.5.q.f.f.f.f.6.Q L U U G - X o o o                                                           ",
"                                                          X X X X X =.x.x.x.x.g.5.5.5.5.5.5.5.5.5.5.4.5.5.5.5.q.f.f.f.f.6.Y L L U J - X o o o                                                           ",
"                                                          < 1 1 1 1 ,.x.x.z.x.g.5.5.5.5.5.5.5.5.5.5.9.0.0.0.0.0.q.q.q.i.4.! E E E P - X o o o                                                           ",
"                                                o o O o % w.j.h.h.h.d.f.g.f.f.p.5.5.5.5.5.5.5.5.5.5.k.z.z.z.x.7...........[ [ [  .` : X o o O                                                           ",
"                                                o o o X * y.x.x.x.x.k.f.f.f.f.a.5.5.5.5.5.5.5.5.5.7.k.x.x.x.x.8. . . . .|  . . . .' : X o o O                                                           ",
"                                                o o O X * y.x.x.x.x.k.s.f.s.f.q.5.5.5.5.5.5.5.5.5.5.k.x.x.x.x.8.[  . . .|  . . . .' : X o o O                                                           ",
"                                                o o o X * y.x.x.x.x.k.f.f.f.f.a.5.5.5.5.5.5.5.5.5.5.k.x.x.x.x.8.[  . . . . . . . .` : X o O O                                                           ",
"                                                o o o o * y.x.x.x.x.k.s.f.s.f.q.7.7.5.8.7.5.7.5.5.7.k.x.x.x.x.6. ... ..... . .[  .` , O O O O                                                           ",
"                                                o o o X * y.x.x.x.x.s.8.6.8.8.a.k.k.k.k.k.s.a.p.a.a.f.k.g.g.g.a.9.6.9.9.3. . . . .[ m n n n n 9 X o o o                                                 ",
"                                                o o O X * y.x.x.x.x.a.5.5.5.4.a.x.x.x.x.x.f.f.f.f.f.f.s.f.f.f.f.f.f.f.f.9... . . .[ E E E U E 0 X o o o o                                               ",
"                                                o o o o * y.x.x.x.x.a.5.5.5.4.a.x.x.x.x.z.f.f.f.s.f.f.f.f.s.f.f.f.f.f.f.9... . . . .E L L L U 0 X o o o o                                               ",
"                                                o o o X * y.x.x.x.x.a.4.5.4.4.a.x.x.x.x.x.f.f.f.f.f.f.f.f.f.f.s.f.f.f.f.9...[  . . .E U L U Y 0 X o o o o                                               ",
"                                                . X X X % y.x.x.x.x.a.4.5.5.4.a.x.x.x.x.x.f.s.f.f.f.f.f.s.f.f.f.f.f.f.f.0...X. . . .E U U U L 0 X X O o X                                               ",
"                                      o o o   2 #.$.#.$.&.u.f.f.f.f.f.s.f.f.s.s.a.q.a.a.i.9.8.8.6.8.8.0.8.8.6.8.8.8.8.0.1.F D D D D W ~ ! ~ ' y X O o o O                                               ",
"                                      o o o X w z.x.x.x.x.8.4.5.5.4.g.x.x.x.x.g.2.2.2.2.2.2.2.2.2.2.2.2.2.2.2.2.2.2.2.2._ k h h j k ^  . . . .s X o o o o                                               ",
"                                      o o o X w z.x.x.x.z.0.5.5.5.5.g.x.x.x.x.f.2.2.2.2.2.2.2.2.2.2.2.2.2.2.2.2.2.2.2.2._ k j j j k ^  . . . .s X o o o O                                               ",
"                                      o o o X w z.x.x.x.z.0.4.5.5.5.g.x.x.x.x.g.2.2.2.2.2.2.2.2.2.2.2.2.2.2.2.2.2.2.2.2._ k j j j l ^  . . . .s X X X X o                                               ",
"                                      o o o X w z.x.x.x.x.8.5.5.5.5.g.x.x.x.x.f.2.2.2.2.2.2.2.2.2.2.2.2.2.2.2.2.2.2.2.2._ k j j j k ^  . . . .s X X X X X                                               ",
"                                      o X o . w z.x.x.x.x.0.5.5.5.5.f.z.z.z.z.s.2.2.2.2.2.2.2.2.2.2.2.2.2.2.2.2.2.2.2.2._ k j j j l ^  . . . .z > 4 4 4 ,                                               ",
"                                      o X X X w z.x.x.x.z.0.4.5.5.5.q.f.f.f.f.q.2.2.2.2.2.2.2.2.2.2.2.2.2.2.2.2.2.2.2.3._ z j j h k ^  . . .| W P K J U x O O X X O                                     ",
"                                      o o o X w j.x.x.x.z.q.5.5.5.5.q.f.s.f.f.q.2.2.2.2.2.2.2.2.2.2.2.2.2.2.2.2.2.2.2.2.o.k j j j k ^  . . . .! L L L Q x o o o O o                                     ",
"                                      o o o . w z.x.x.x.z.9.5.5.5.5.a.f.f.f.f.q.2.2.2.2.2.2.2.2.2.2.2.2.2.2.2.2.2.2.2.2._ k j j j l ^  . . . .! L L L E x O o o X O                                     ",
"                                      o o O X w z.x.x.x.z.0.5.5.5.5.q.f.f.f.f.q.2.2.2.2.2.2.2.2.2.2.2.2.2.2.2.2.2.2.2.3._ k j j j k ^ X. . . .~ U L U U v o o o o o                                     ",
"                                      o o O . w z.x.x.x.x.0.7.7.7.7.q.i.i.i.i.6.2.2.2.2.2.2.2.2.2.2.2.2.2.2.2.2.2.2.2.2._ k j j h l I ' ' ' ' Y J J J P l O o o o o                                     ",
"                                      o o o X w z.x.x.x.x.f.s.s.s.s.o.R R R R ( 2.2.2.2.2.2.2.2.2.2.2.2.2.2.2.2.2.2.2.3._ k j j j j d d d d d d i i i i 8 O X o o o                                     ",
"                                      o o o . w z.x.x.x.x.g.s.f.s.f.) A S G S / 2.2.2.2.2.2.2.2.2.2.2.2.2.2.2.2.2.2.2.2._ z j j j j 0 0 0 0 0 0 0 0 0 0 4 X O o o o                                     ",
"                                      o o o X w z.x.x.x.x.f.s.f.f.f.) G G G S / 2.2.2.2.2.2.2.2.2.2.2.2.2.2.2.2.2.2.2.2._ k j j j f 0 0 0 0 0 0 0 0 0 0 4 O o o o o                                     ",
"                                      o o O . w z.x.x.x.x.g.f.f.f.f.) S G G A / 2.2.2.2.2.2.2.2.2.2.2.2.2.2.2.2.2.2.2.3._ k j j f f y 0 0 0 0 0 0 0 0 0 3 O o o o o                                     ",
"                                      o o o . w z.x.x.x.x.f.s.f.f.f.) G G G G / 2.2.2.2.2.2.2.2.2.2.2.2.2.2.2.2.2.2.2.2._ k h h h h 0 0 0 0 0 0 0 0 0 0 4 O o o o o                                     ",
"                                      o o o X w z.x.x.x.z.3.@.@.@.@...^ ! ! ! R V V V V V V V V V V V V V V V V V V V V V m m m m m n n n n n h p p p p 9 O o o o o                                     ",
"                                      o o o X w z.x.x.x.l.O.|  .| |  . . . .X.H a a a h j h d j h a a a a a a a h h a a l G G G G G G G G G J v k h h h 9 O o o o o                                     ",
"                                      o o o . w z.x.x.x.z.+.|  . . . .|  . . .H j h j j j j j j h j h h j j j j h j h j x S G G G G G G G G G v h h k h 9 O o o o o                                     ",
"                                      o o o . w z.x.x.x.z.O.|  . . . . . . . .H j j j j j j j j j j j j j j j j j j j j x S G G G G G G G G G v h j h k 9 O o o o o                                     ",
"                                      o o O X w z.x.x.x.z.O. . . . . . . . .X.I j j j j h h h h j j j f j f f f j j j h x G G G J G G G G G G v h k h k 0 O o o o o                                     ",
"                                      o o o X 7 =.=.=.=.-.{  . . . .T B N B N N v v v v v v v c v v v v v v v v v v v v v v v v v v A G G G J h 8 8 8 8 3 O O o o o                                     ",
"                                                X X X X & T  . . .| b 0 0 0 0 j G G G G G G G G G G G G G G G G G G G G m 0 0 0 0 u m G G G J 9 X O o o X                                               ",
"                                                o o o o = H X. . . .c 0 0 0 0 j G G G P S S G G G G G G G G G G G G G G m q 0 0 0 u C G G G G 9 X o o o o                                               ",
"                                                o o o o $ H  . . . .c 0 0 0 0 j G G G S P S G G G S G G G G G G G G G G m 0 0 0 0 u m J G G J 9 X o o o o                                               ",
"                                                o o o o $ H | |  . .b 0 0 0 0 j G G S S G G G G G G G G G G G G G S G G m u 0 0 0 u m G G G J 9 X o o o o                                               ",
"                                                o o o o $ H | ~ [ ' b 0 0 0 0 j G G S S G G G G G G G G G G G G G G G G m 0 0 0 y u n Z Z C Z 8 X o o o o                                               ",
"                                                o o o o O Z E E E E l 0 0 0 0 j G G G G G G G G G G G G G G G G G G G G m u 0 0 0 y h k h k h , o o o o o                                               ",
"                                                o o o X = m E E K E l 0 0 0 0 k G G G G G G S G G G G G G G G G G G G G m 0 0 0 0 0 a j h k h , X o o o o                                               ",
"                                                o o o o # m E E E K l 0 0 0 0 j G S G G G G G G G G S G G G G G G G G G m u 0 0 0 0 h h k h j > X o o o o                                               ",
"                                                o o o X # m L E K E l 0 0 0 0 k G G G G G G G G G G G G G G G G G G G G m 0 0 0 0 0 h h k h j , o o o o o                                               ",
"                                                o o o o $ m K J J K x 0 0 0 0 k G S G G S G G G G G G G G G G G S G G G m y 0 0 0 y p a a f f ; X o o o o                                               ",
"                                                          ; > > > ; 0 p p a p x G G G G G G G G G G G G G G G G G G G G C f p a a i ; = & = = #                                                         ",
"                                                          X X X X X 9 j j j j v G G G G G G G G G G G G G G G G G G G S C k f j j p & X O X o                                                           ",
"                                                          o o o O X 6 k j j f v G G G G G G G G G G G S G G G G G G G J C j j j j a & X X X O                                                           ",
"                                                          o o o o o 9 j j j f v G G S G G G S S G G G G G G G G S G G G C k j j j d & X O O X                                                           ",
"                                                          o o o o o 8 j j j j v G G J G J G J S G G G G G G P G G J J G C k j j j f & X O X O                                                           ",
"                                                                    - 3 3 3 3 5 0 0 0 0 0 0 0 0 0 0 0 0 0 0 0 0 0 0 0 0 9 4 3 3 3 3 &                                                                   ",
"                                                                    o o X X X X X X X X X X X X X X X X X X X X X X X X X X X X o X                                                                     ",
"                                                                    o o o o o o o o o o o o o o o o o o o o o o o o o o X O X X o o                                                                     ",
"                                                                    o o o o o o o o o o o o o o o o o o o o o o o o o o O X + X o o                                                                     ",
"                                                                    o o o o o o o o o o o o o o o o o o o o X X o o o o X O O X o o                                                                     ",
"                                                                      o o o o o o o o o o o o o o o o o o o o + o o o o O O X O o o                                                                     ",
"                                                                                                                                                                                                        ",
"                                                                                                                                                                                                        ",
"                                                                                                                                                                                                        ",
"                                                                                                                                                                                                        ",
"                                                                                                                                                                                                        ",
"                                                                                                                                                                                                        "
};
