/* XPM */
static char *adbab976d5124ba2902d9762713b1df1LTL4WHZ6OGSDcp6P[] = {
/* columns rows colors chars-per-pixel */
"62 100 249 2 ",
"   c None",
".  c #0C870B",
"X  c #0E890C",
"o  c #0B8807",
"O  c #128C0D",
"+  c #178C0E",
"@  c #0E940B",
"#  c #0F9A0A",
"$  c #14920D",
"%  c #1A940E",
"&  c #129C0C",
"*  c #1C9B0E",
"=  c #0F8910",
"-  c #148C11",
";  c #1B8D13",
":  c #188B15",
">  c #159411",
",  c #1B9411",
"<  c #1D9B11",
"1  c #179B12",
"2  c #229D0F",
"3  c #23940F",
"4  c #239413",
"5  c #239C12",
"6  c #299716",
"7  c #339D13",
"8  c #389D17",
"9  c #218F11",
"0  c #13A30C",
"q  c #14AB0D",
"w  c #1BA70E",
"e  c #15B30D",
"r  c #1AB30D",
"t  c #15BC0C",
"y  c #1ABD0D",
"u  c #19A711",
"i  c #18B811",
"p  c #0FA90D",
"a  c #23A20F",
"s  c #29AD0F",
"d  c #23B70E",
"f  c #24A412",
"g  c #2CA412",
"h  c #2CAC12",
"j  c #25AA13",
"k  c #34A514",
"l  c #33AC13",
"z  c #3DAC19",
"x  c #3AA615",
"c  c #2BB313",
"v  c #2CBC12",
"b  c #24B813",
"n  c #33B413",
"m  c #3CB416",
"M  c #34BA14",
"N  c #3BBC14",
"B  c #3CB419",
"V  c #2B9626",
"C  c #3A9B33",
"Z  c #31982C",
"A  c #38A62A",
"S  c #36B02B",
"D  c #43AD14",
"F  c #47A915",
"G  c #42B316",
"H  c #4AB519",
"J  c #45BB19",
"K  c #4CBA1A",
"L  c #49B816",
"P  c #54BC1A",
"I  c #59B817",
"U  c #55AD18",
"Y  c #68BC17",
"T  c #76BE17",
"R  c #45A43B",
"E  c #48B52A",
"W  c #16C10C",
"Q  c #1AC10C",
"!  c #1DC213",
"~  c #1FC219",
"^  c #23C30E",
"/  c #2BC40E",
"(  c #33C60E",
")  c #3AC80E",
"_  c #25C312",
"`  c #2CC411",
"'  c #25C31A",
"]  c #33C512",
"[  c #3CC514",
"{  c #3CC913",
"}  c #38C716",
"|  c #39C729",
" . c #31C628",
".. c #43C515",
"X. c #45CA14",
"o. c #4ACB15",
"O. c #44C418",
"+. c #46CA19",
"@. c #4ACB19",
"#. c #4BC417",
"$. c #53CD16",
"%. c #5ACD16",
"&. c #54C41A",
"*. c #5DC31B",
"=. c #54CD19",
"-. c #5BCE19",
";. c #57C215",
":. c #5CD115",
">. c #5DD11A",
",. c #53D015",
"<. c #4BCD0F",
"1. c #63C41D",
"2. c #64CD1A",
"3. c #6CCD1D",
"4. c #66C716",
"5. c #76C918",
"6. c #63D214",
"7. c #6BD415",
"8. c #64D11A",
"9. c #6CD31C",
"0. c #72D514",
"q. c #7DDA14",
"w. c #73D41D",
"e. c #7CD61E",
"r. c #7DD81C",
"t. c #78D516",
"y. c #6FD60E",
"u. c #49CA24",
"i. c #52CC23",
"p. c #57CD2A",
"a. c #43C933",
"s. c #5ACE34",
"d. c #5CD12E",
"f. c #66C823",
"g. c #69D229",
"h. c #74D321",
"j. c #7DD621",
"k. c #7ED822",
"l. c #79D629",
"z. c #67D23A",
"x. c #77D436",
"c. c #6DCC2E",
"v. c #56AA4A",
"b. c #50AD49",
"n. c #62B457",
"m. c #62B352",
"M. c #78BC68",
"N. c #55CE46",
"B. c #57CD4B",
"V. c #6CD347",
"C. c #79D657",
"Z. c #73D04C",
"A. c #75D369",
"S. c #86CE16",
"D. c #84DC14",
"F. c #8BDC14",
"G. c #83D51D",
"H. c #84DA1D",
"J. c #8BDC1B",
"K. c #89D417",
"L. c #93DD14",
"P. c #93DE1B",
"I. c #97D917",
"U. c #A1DD17",
"Y. c #94E115",
"T. c #9CE314",
"R. c #9BE11B",
"E. c #94E01B",
"W. c #AEEA0E",
"Q. c #A0E40F",
"!. c #A3E413",
"~. c #ABE614",
"^. c #ADEA11",
"/. c #A8E619",
"(. c #B1EA12",
"). c #B3E91B",
"_. c #B0EB0F",
"`. c #81D722",
"'. c #82D822",
"]. c #8ADA22",
"[. c #84D92B",
"{. c #86D828",
"}. c #97DC26",
"|. c #88D937",
" X c #94DE37",
".X c #84CB29",
"XX c #A7D926",
"oX c #99E127",
"OX c #9BE136",
"+X c #A8E426",
"@X c #B5E529",
"#X c #A9E535",
"$X c #B6EA37",
"%X c #CFEA2B",
"&X c #EAF030",
"*X c #8DDA46",
"=X c #97DE47",
"-X c #96DB54",
";X c #87D258",
":X c #A5DB50",
">X c #A8E542",
",X c #B6E846",
"<X c #A6E257",
"1X c #B9E855",
"2X c #97DB6A",
"3X c #8ADA76",
"4X c #93DE76",
"5X c #88D36C",
"6X c #A7E267",
"7X c #ACE477",
"8X c #B7E674",
"9X c #B1E369",
"0X c #9FE05A",
"qX c #C3EC48",
"wX c #CBEE57",
"eX c #C8EB66",
"rX c #C6EB7A",
"tX c #D4ED71",
"yX c #EFF156",
"uX c #98DC86",
"iX c #91CF89",
"pX c #A5D595",
"aX c #A6E286",
"sX c #BAE785",
"dX c #A7E297",
"fX c #B4E69E",
"gX c #B7DAB2",
"hX c #B9E6A6",
"jX c #BEE8B3",
"kX c #C6EB8A",
"lX c #C7EB99",
"zX c #D8F091",
"xX c #C9EBA5",
"cX c #DAF1A9",
"vX c #D4EDB8",
"bX c #DEF1BA",
"nX c #CBECB1",
"mX c #E7F4B6",
"MX c #E8F3A7",
"NX c #E8F08C",
"BX c #D9EFC8",
"VX c #EBF4D8",
"CX c #F4F7D7",
"ZX c #ECF5C9",
"AX c #F7F7E8",
"SX c #FEF9FB",
"DX c #FCF8F5",
"FX c #EFF5E4",
"GX c #C5DFC3",
/* pixels */
"                                                                                                                            ",
"                                                m J ..X.X.O...J G z 7                                                       ",
"                                            #.$.$.-.%.$.$.>.$.o.o.o.$.o.o...B                                               ",
"                                        N @.9.h.w.j.`.`.k.'.w.w.e.w.h.w.9.-.$.#.m J                                         ",
"                                    7 #.=.f.`.j.'.`.[.k.k.k.{.k.e.w.w.h.|. Xh.9.$.%.2.                                      ",
"                                  6 i.g.r.j.`.j.k.8XbX8X[.k.k.j.8.X.] X.z.*Xr.{.j.k.k.H.                                    ",
"                                  u.7XrX'.'.`.=X[.lXSXAXkXw.$.=.$.u.B.` ( { -.j.j.[.`.`.H.                                  ",
"                                B @.*X=X'.k.l.<X{.rXAXDXCX8Xz.+.X.V.aXX.{ ` } Z.h.r.'.'.`.].                                ",
"                              x o.9.G.k.r.k.`.j.r.OXcXVXZXmX7Xo.o.p.V.X.o.X.Z.uX| -X].'.`.J.K.                              ",
"                              J %.t.=.} $.k.`.e.8.g.V.V.z.h.8.i.+.o.<.o.+.X.@.| | nX<XH.j.J.~.I.                            ",
"                            z X.X.| ' W W o.>.$.>.y.y.q.F.l.'.7XaXx.$.o.o.o.o.X.X.z.[.r.`.'.R.I.w.                          ",
"                            ..) ! A. .W _ { { 7.6.:.y.q.OXzX#X X=X{.5.%...[ o.o.o.X.h.>XP.H.`.`.2.-.Y                       ",
"                          z ..^ y ' a.} X.` ( 9.( ^ _ X.s.xXZ.6.r.G.j.h.o./ / { o.o.g.lX#XJ.`.`.9.o.$.4.                    ",
"                        x O.^ t W ! uXs.^ Q >.k.w.w.>.o.+.} _ Q X.w.j.9.$.` / y { 8.w.|.#X'.`.`.`.2.o.$.t.                  ",
"                      x +.i.| ~ Q ] | ! t ^ 9.9.>.%.o.] / W W W W ` } _ y y ^ ] ] o.r.9.].@X].`.j.`.w.%.>.                  ",
"                    z X.X.4XBXjX4X] Q W W ^ =.o.X.@.0.q.D.4.N M [ c r u $ @ # w M X.%.j.9.}.rX0X3.$.h.[. XR.                ",
"                  B +.p.+.aXDXFX3XQ W W W ] @.} { 8.L 7 7 4 - + F 5.G & . . X X e _ [ $.|.-XzXlXh.^ { |.8X/.                ",
"                z @.2X;XX.4XAXuX' W t ! ` { ^ ] ,.v & X . . X % 7 x U : O O . . $ q y ! dXFXeX%XG.X.y X.[.'.K.              ",
"                #.@.V.i.X.p.3X| W Q W ` } Q Q ] Q 0 . . X X . % *.*.7 ; : . X . . o p t a.hX,X%X}.D.X.^ =.'.G.              ",
"              J o.+.o.@.o.( W W t W ] ] q r ! W q O O O = . X . % P 3.H O . . X X O X # W @.P./.E.'.oX|.} h.`.].            ",
"              +.@.@.+.o.{ ^ W W y ] +.u 7 #.Q r O o . . . 9 7 6 9 x 5.D.D . . X X X X . 0 ` h.H.'.r.9XmXZ.0.'.J.            ",
"            J @.@.@.o.+./ W W W W X.b x 4.` Q 0 + o . 3 Y I.S.Y T I.^.~.T.U @ o . X . O O & 2.J.'.j.|.eX%XJ.'.'.            ",
"            X.@.o.+.X.X.Q W Q a.a.z > G ] ] Q t # o + 5.~.(./.F.Y 0.D.Y.F.o.i q @ . X O . . F @XR.j.9.w.).!.'.H./.          ",
"          G o.X.o.o.X./ Q Q W 4XpX5 r i ^ ^ W y @ + I ~.L.5.6.#.m O.X.$.#.J ` W e & o X O . + 5.).H.w.$.Y.^.H.H.P.          ",
"          #.=.2XZ.X.} Q Q Q W a.s.] _ Q W W t 0 + F 4.F % + j N ..O.o.o...l K o.^ y $ & q X = z @XP.e.=.D.(.E.k.'.          ",
"          2.g.xXnXu.^ / ^ W W ( f.{ { ` W e # o 4 k O o . 2 ;.P G n J o.+.+.O.>.2.^ i e Q 0 o , }.).e.=.7.T.Y.H.j.P.        ",
"        G w.`.=X6X@.W ) ^ ^ W X.$.X.] Q e & 9 ; F I O . 0 M >.k.2.#.O.+.@.@.o.o.%.=.y q e e X O I U.H.$.>.q.D.E.j.G.        ",
"        #.w.{.j.r.,.! ] @.X.^ { / ^ Q Q w . 4 ; 4 6 = x -.@.o.,.=.o.+.+.@.@.o.@.X.X.^ y q t 0 . k j.'.$.H.+X8.J.`.H.        ",
"      5.=.l.{.`.k.o.^ X.9.@.` { y W W W e 3 6 = . + + L =...N N N [ O.X.@.@.o.@.@.$.+.} b u > X % f.`.] 6.@X@.w.j.e.P.      ",
"      T.+XzX<X`.w./ / >.k.=.<.,.W Q W W e I Y = < K *.K g % O O O % 5 M +.+.+.+.n 5.].-.o.v D X . K k./ / G.o.t.H.{.}.      ",
"      t.).eX<Xj.o.Q { g.8.` :.) ! W W r # 5.5., L P k O o o X X o ; k F #.o.o.[ X F %X8.8.` 5.3 . k >.^ / r.y.H.j.8X$X      ",
"    ;.>.I.e.`.h.^ ^ ,.>.>.} 6.! W ! ! t 2 5.F U 5 O . . X 0 q X X 5.~.F.F.0.o.O.> : XXH.9.` 6.F o % #.W ^ e.T.E.e.=XoX      ",
"    P h.@X`.e.o.W ] o.X.>.X.X.W W W W W 2.Y 9 F X X X . O & @ X X F I.L.`.w.#.o.h . I H.=.X.6.Y o X K Q ( t.7.Y.J.e.k.S.    ",
"    -.7XtXJ.w./ W ( ( o.{ <.) W ! ! y X.w.7 . X X X X X . . . . . . 4 F 4.e.8.X.[ X , 3.=.$.t.S.+ o s Q [ 2.-.Y.H.k.'.F.    ",
"    7.6X<XG.9.Q Q ] / $./ :.` W W W ` w.I , O X X . X O + X O = X X X = + k t.6.O.* X L $.-.L.I.4 k j e ] %.9.D.'.'.`.I.    ",
"    7.9.G.G.9.Q | 4XA.} Q X.Q W W W b *.k f O X o % h N n O X = O X O X . . k 5.@.h X h $.w.F.!.7 P l 0 / %.8.7.'.'.`.K.    ",
"    3.w.'.'.w.^ N.VXVXb.d _ t Q Q e & 4.m * . X , N o.X.f X X X X O X O O . . 7 @.N X * =.w.I I.x P g # Q $.8.6.'.`.'.T     ",
"    8.w.k.'.e.] ~ dXVXm.s ! W Q W q k I.4.6 o X n X.o.l X X X O = X = X . O X . h ..+ % &.].D 5.U n w $ t X.9.6.J.e.}.T     ",
"  J.:.r.r.'.'.o.W n.VXpXv W Q Q W j 1.3.4.8 . 0 ` $.N O X - O X X O = X X X . X h o.a o K +XH F I e q X e / 0.0.J.G.].I.    ",
"    :.t.{.k.r.8.Q A BXVXs.W Q Q i K L l ; - @ e / 9.2 X X = X = = X O X X X X O *.t.m O l P.#., 7 e e @ e Q w.9.e.G.e.].    ",
"    %.%.e.j.`.9.^ w 2X7Xj.Q W t b 1.g a O X 0 W X.f.O . = O O X X X X X X X o X *.0.&.% 2 w.[ & @ t e & t ! 0.8.9.{.|.K.    ",
"    ..$.w.G.j.j.` y $.7.0.Q t t K K c 2 & q i W ] x . X X X X = O X X > , % . X H 9.X.5 $ 2.{ a & t e & t W 8.8.h.8XbX>X    ",
"    $.w.e.=XsX*X) W ^ ,.,.t W d 1.x M * q W W W M > o . = X = X X O f N O.{ d # z 9.] j X &.{ s - 0 e & t W $.8.w.=XlX+X    ",
"  K.w.h.{.lXDX8X) Q y ` / W t a K 5 M c y W W ! l 7 O . O X O X = O h +.#.X.( 0 k $.} d X L ) c = # i r e e &.l.|.e.j.'.G.  ",
"  L.7.j.j.sXFXeX7._ } ` d W e - % * g M ! W ! i L L = = O X X X . X u ` } O.[ e < } $.N X G N n O # W e o V :X@X Xk.H.k.H.  ",
"  /.7.9.j.g.Z.E.7.,.+.` y W # X o $ < v ! Q W b P k . = F , X O O O q 0 & / n q 0 u o.#.$ z l n = $ W e . C lX+X`.}.E.k.G.  ",
"  L.>.9.k.o.$.+X-X>.N N ^ e O X . < u d W W W O.;.% o 6 Y : X % c 1 X X O e # q e * 4.=.< z g n X 0 Q t O 6 <XJ.[.kX+Xj.`.  ",
"  I.>.9.{.>.q.$X7Xt.D Y M q . O . > 1 y W W ! =.z . o U U . $ v y & X X X 0 O & t 5 h.&.L f.g N O q W y 0 f H.q.j.=XP.=X}.  ",
"  F.$.w.H.Y.^.^.q.q.T 5.c & X o X o & Q Q W ( 9.f o = T 7 X a ^ M 5 X X X q $ $ r 5 h.-.9.h.m ;.- # e W W ] '.0.w.k.G.8X,X  ",
"  0.o.w.T.^.^.^.T.D.F.4.2 O O X . % * ^ Q t =.h.3 . 9 5.% X c ^ 9.1.% X X & 0 O X 4 h.q.e.4.M L . X e t t +.H.t.>.k.r.oX/.  ",
"L.6.=.P._._.^._.E.q.T.;.= = X X o O L X.W W o.3.+ o 8 5.O % ) ) h.J.N c 4 & h l . 6 }.).J.2./ m X X e q r >.H.0.g.|.H.J.J.  ",
"L.:.7._._._.$XwXr.9.+Xk . . X O o o I ,.W W X.1.+ o F 5.+ s { [ e.E.J.K u e =.3.% g +X@X'.2...L < 1 e q r w.w.$.Z.sXk.E.T.  ",
"L.%.6.^.^.^.$XzX#XkX;X= . = O . $ h D o.W t [ L . o I I.4.X.{ X.3.k N 3 0 } w.3.: z rX<X<Xz.o.I #.v W q M w.6.$.g.|.'.E.J.  ",
"  ;.,.W._.^.^.@X}.xXn.. = O O . * M D X.W t / h . o Y H.T.$.X.] X.% q X 7 w.e.#.> f.cX9XlXN.X.o.h.$.y e J h.:.F.q.T.%XR.H.I.",
"  %.-.Q._.(._._.T.|.6 . X = X X % M G ( W t ( f o . H =.D.%.X./ / * 0 0 % M ] q 3 *XMXeXxX ...X.g.8.^ v f.8.6.!.Y.(.&XXXG.P.",
"  ;.p.1X).^._._.R.I X O X X O . $ M r Q W Q / f . . m o.$.o.X.{ d w X e p 0 e > L [.1XMX3X^ ( ] w.>._ N h.=.7.T.P.%X&X}.`.P.",
"  6.d.lX$X_._._.T.G . . . . = X X d t t W Q ^ f . X n X.+.X.h N ^ e $ @ u 0 = < +.8.kXxX| ] / / k.X.v L >.} :.r.wXyX%X{.].F.",
"  t.+.g.oX_._.^.+XD C V . X X X X q Q W W Q ` < . X h X.X.#.2 f { / w . . = , [ @.;XxXs.Q ] ` o.h.M j l / <.J.r.eX&X&X{.'.K.",
"  #.,.:.Q.W.^.wXcXR b.Z X X X X X e Q Q Q Q ` f X . D :._ X.n $ M o...h 5 f [ +.C.xXZ.b ] / Q 8.*.< w 0 W 6.!.H.).%XyX8Xe.S.",
"  J 0.r.Y.W.qXCXmX2Xb.o X X = X X e Q Q Q W ` f . o F F.^ ] o.s * N o.o.o.o.z.aXcX:X3 q Q t j w.G o $ t Q 6.1X0XH.).tX6X3.Y ",
"  5.7.D.J.+XmXAXzXVXgX: o X X X X e W W W Q ` 5 X . 4 F.X.^ X.X.M N X.o.+.d.xXnX>XI $ t Q t k w.7 . @ t ` h.C.B.X.T.[.l.2.Y ",
"  K.%.F.J.~.tXmXZXSXGXC C @ - X . q W W Q y ` a . . + 5.D.) { $.X.X.o.o.+.@.z.p.D.K i t e 0 G f.+ o # ! >.r.( _ :.#X].k.7.K.",
"    =.0.P.W.(.$XkXnXn.C 5X: X X . 0 t q e W ( s o . . F ^.F.X.F.D.7.:.>.%.X.X.o.0.` e @ & $ P D O o s } D.q.` _ >XzX#XD.!.U.",
"    %.j.).W.W.!.'.-.r : : X = X . 0 i $ 0 i ] X.a X o % F._.t.o.7.7.7.q.t.%.%.O.v u X X X 5 1.3 . $ N 8.T.:.+.w.NXzX].E./.  ",
"    t.9.E.oXqX+XH.,.y @ o . . . . 0 q O # t ] o...% . . I !.Y.7.X.X.o.6.q.G.H * O o o O = K D X . f X.9.E.o.H.wXMX=XH.J.!.  ",
"    S.8.r.}.wX+XH.,.e . . o = = = n w . $ t / X.O.* . o , K.W.W.D.,.o.q.I.k - O o X . . k *., . O c ,.w.9.7.,XMX9XH.'.'.    ",
"    *.%.H.!.W.T.r.z.V . V m.4 . X N n . $ e / o.X.h X X X k F.).qX,X>X1X X#.[ N g O o 6 f.k o X % M 8.k.2.*XmXzX{.H.H.k.    ",
"    4.$.F.^.^.Y.k.sXn.. v.BXR . o h N O o p / 8.o.N % o X X n c.mXAXCXCX4X@.o.n > . 5 1.K h X X h X.$.e.j.tXmX#Xr.r.H.L.    ",
"    5.>.E.W.^.J.'.z.v > Z M.4 . o 2 O.a . # ` t.%.X.c O X . $ O.;XBXSXDXhXp.X.c * g *.L n < X , n o.$.3.:XmXtXI.'.'.H.I.    ",
"    S.8.J.T.^.J.j.$.W u = = = . X % X.n . O &.k.t.$.{ w $ X . < M s.4XdXaXd.@.@.O.X.#...f > * % h +.+.B |.0X#X].r.G.].      ",
"      J.r.T.^.H.j.9.^ e = . O X . + ..O.% $ &.j.`.w.$.] v 5 X X % s { o.@.@.@.@.o.o.@.o.N h % O N @.} K w.%.2.<X XG.G.      ",
"      E.9.T.^.F.k.j.[ q . o . O X O &.+.n s o.9.j.j.j.9.` ` B h < + 2 O.o.@.@.@.@.+.@.X.n % . > O.o.] -.o...e.=X Xj.J.      ",
"      0.>.Q.W.Y.q.{.:.e V O . = X = K N X.X.X.$.h.`.`.`.8.b M X.O.[ n X.X.o.o.o.o.X.M 5 O . . % O.$.d d ` >.'.`.e.`.        ",
"      %.=.oX1X$XR.H.h.f Z w $ . X = D z N o.o.o.6.j.j.`.j.2.5 < n M n 2 2 f h c h 5 O O . . . % [ 4.+ g [ 9.`.j.j.j.        ",
"      %.i.lXCXZXNXoXe.v X & 0 o X X 7 K f +.o.X.o.9.j.e.j.w.w.G 4 + . . O % 5 x L P x o X . O b [ k - r [ {.].j.'.          ",
"      1.$.|.eXmXZX#XL.{ 0 $ y & X . , *.A 3Xi.o.+.$.8.`.I 4 H h.h.3.P C.m.#.h.k.`.h.G + . O h ` N O b.V.=.`.'.j.J.          ",
"        @.$.L.@X%X+X^.:.] & q e O . . L P b.m X.+.o.X.$.h.5 = 6 K 3.G.|.s.&.1.P D 4 - . % n N & q o 5XpX$.w.[.[.I.          ",
"        &.X.%.q.Y.^._.J.9._ e t $ o . k 3.4 f X.+.o.o.[ -.;.O o X % k f & % $ X = O < h [ N % X $ o iXxX=.w.[.x.P.          ",
"        1.o.X.X.o.t.T.H.*XA.a.A., o o % 2.G % N +.@.o.X...%.l X X o . . . . $ 2 h N O...n % O . O . M.aX#.=.$.2.            ",
"          =.o.X.o.9.H.k.7XlX-XnXC $ o . x P X a #...n { c g [ N j $ $ O % g N o.O.M h % O > 1 . . . h i.+.o.#.              ",
"          f.o.o.i.*X{.e.{.|.`.*XB t q 4 ; 4 X . n N 5 A f X % n ..O.N M O.$.o.m * O . X & q @ . O g &.-.g.d.B               ",
"            x O.C.BX=Xj.H.e.`.r.g.5XB.f.6 . . v.A N N 5 X . . X & h ..X.z.aX@.a X X & e q A R ; I h.k.`.0.#.                ",
"              N d.xX-Xj.'.k.'.j.-XCXCXrXG X . b.V % N M u q & X X . % w A v.&.*.a q Q e o C b.P `.|.j.k.-.                  ",
"                O.+.} h.'.`.'.e.=XkX6X=X] & = - . . O n ( Q W e $ o @ q 0 & & c Q W q $ . o . H {.[.j.-.G                   ",
"                  [ ^ @.h.`.j.k.'.{.`.w.^ B.gXS X = o : Z.dXn.i e 0 , t W t W t d ` A : X < 4 K j.{.9.J                     ",
"                  B ` ` o.e.j.`.`.`.j.9.Q N.jXZ.j = Z : m.pXb.= $ m.iXi W t e & > E gXZ > P 5.].k.j.8.                      ",
"                    ../ X.w.].+Xe.2.%.$.` / u.s.B n.gXZ . = = : 9 gXiX& 0 # X . . : v.: . 6 j.@X'.j.=.                      ",
"                    G ) / -.e.e.-.+...{ ` Q +.dXjXdXhXx O . . V V v.9 . o o . o . . = v.E S.w.H.G.2.B                       ",
"                    x O.^ { $.$.@.@.^ Q Q W ) uXjXN.i.{ [ u - . O % > 1 & # % + + X x -X{.+X=.h.w.J                         ",
"                      2.[ ^ { X.@.+.^ W t t ^ @.d.+.X.z.z.X.h O X 2 n ` / / &..X;Xv *.%.-.9.9.K.3.                          ",
"                      /.L.( Q ( o.X.! ' N.! ^ ) X.@.X.C.hXp.o.n * [ i.;Xl.[.{.{.0Xw.e.w.w.w.J./.                            ",
"                        /.F.) Q ^ / W | uX' W ( o.o.o.V.V.@.V.Z.] { C.BX7XbXcXnXlX6X*X X[.G.T.~.                            ",
"                          !.T.6./ o.>.! ~ ! W ^ X.o.i.dXz.X.aXjX' ..dXvXnXSXSXSXSXAXVXFXbX=X!.U.                            ",
"                              /.Y.H.r.,.W W W W ) @.+.z.i.{ N.A.! %.2X6XsXDXSXSXSXSXSXSXBXOX!.                              ",
"                                /.^.T.E.<.W ' ' Q [ [ ^ { / W ^ =.j.h.g.x.vXDXSXSXSXSXVX0XT.                                ",
"                                    I.Y.E.>.V.A.W / ] Q Q Q ( 8.`.j.x.aXi.h.6XxXvXvXfX X!.I.                                ",
"                                      U K.E.}.l.{ X.X.] d ( 0.H.r.H.l.4X=.o.8.t.].E.!.^./.                                  ",
"                                          5.!.(.T.D.q.q.7.q.T.T.R.!.Q.Y.F.D.F.Q.^.^.^.U.                                    ",
"                                              U.~.^.W.W._.W._._.W.W.W.W._.W.^.^.~.!.                                        ",
"                                                  I.I.!.Q.!.U.I.!.                                                          "
};
